<?xml version="1.0" standalone="no"?>
<!DOCTYPE svg PUBLIC "-//W3C//DTD SVG 20010904//EN"
 "http://www.w3.org/TR/2001/REC-SVG-20010904/DTD/svg10.dtd">
<svg version="1.0" xmlns="http://www.w3.org/2000/svg"
 width="500.000000pt" height="500.000000pt" viewBox="0 0 500.000000 500.000000"
 preserveAspectRatio="xMidYMid meet">

<g transform="translate(0.000000,500.000000) scale(0.100000,-0.100000)"
fill="#000000" stroke="none">
<path d="M2880 2180 c0 -5 5 -10 10 -10 6 0 10 5 10 10 0 6 -4 10 -10 10 -5 0
-10 -4 -10 -10z"/>
<path d="M3218 2178 c20 -20 15 -40 -8 -33 -29 9 -50 -12 -50 -50 0 -40 14
-52 64 -52 28 -1 35 2 27 10 -6 6 -11 39 -11 74 0 53 -3 63 -17 63 -13 0 -14
-3 -5 -12z m3 -62 c8 -17 8 -29 -1 -45 -15 -29 -34 -22 -38 13 -7 55 19 76 39
32z"/>
<path d="M4055 2156 c-5 -6 -8 -33 -5 -61 4 -45 8 -50 30 -52 14 -1 18 0 8 3
-14 4 -18 16 -18 50 0 35 4 44 18 45 13 0 14 2 2 6 -8 3 -17 9 -20 13 -3 4 -9
3 -15 -4z"/>
<path d="M2349 2137 c15 -15 14 -70 -1 -85 -9 -9 -5 -12 18 -12 19 0 25 3 16
9 -8 5 -12 22 -10 42 3 29 6 34 26 31 15 -1 22 2 20 10 -3 7 -21 13 -42 14
-26 1 -34 -2 -27 -9z"/>
<path d="M2496 2134 c-31 -31 -12 -94 29 -94 13 0 27 4 30 10 3 6 -1 7 -10 4
-16 -6 -45 11 -45 27 0 5 14 9 30 9 22 0 30 5 30 18 0 38 -37 54 -64 26z m44
2 c0 -2 3 -11 6 -20 5 -12 0 -16 -20 -16 -28 0 -29 1 -20 24 5 14 34 24 34 12z"/>
<path d="M2638 2138 c7 -7 12 -26 12 -43 0 -17 -5 -36 -12 -43 -9 -9 -6 -12
15 -12 24 0 26 2 15 20 -15 24 0 75 22 75 11 0 16 -14 18 -47 4 -65 27 -65 27
-1 0 36 4 48 15 48 11 0 16 -13 18 -47 3 -42 6 -48 25 -47 12 0 16 3 10 6 -7
2 -13 22 -13 43 0 46 -22 70 -50 53 -13 -9 -20 -9 -29 0 -9 9 -16 8 -31 -1
-12 -7 -20 -8 -20 -2 0 5 -8 10 -17 10 -13 0 -14 -3 -5 -12z"/>
<path d="M2879 2104 c2 -32 -1 -49 -10 -55 -9 -6 -2 -8 21 -8 19 0 29 3 23 6
-8 3 -13 24 -13 54 0 33 -4 49 -13 49 -8 0 -11 -14 -8 -46z"/>
<path d="M2989 2137 c15 -15 14 -70 -1 -85 -9 -9 -5 -12 18 -12 19 0 25 3 16
9 -8 5 -12 23 -10 47 2 31 7 39 23 39 17 0 20 -8 23 -47 2 -31 8 -48 16 -48 9
0 11 11 6 43 -9 59 -15 66 -61 65 -29 0 -38 -3 -30 -11z"/>
<path d="M3342 2138 c-7 -7 -12 -26 -12 -43 0 -17 5 -36 12 -43 14 -14 44 -16
52 -3 4 5 -3 7 -13 4 -13 -3 -23 2 -30 16 -11 19 -9 21 24 21 37 0 42 8 25 41
-12 21 -40 25 -58 7z m46 -21 c2 -12 -3 -17 -17 -17 -12 0 -21 6 -21 13 0 31
32 34 38 4z"/>
<path d="M3485 2094 c0 -51 1 -54 25 -53 14 0 19 3 13 6 -13 5 -18 75 -6 86 3
4 12 2 19 -4 8 -7 14 -7 19 1 8 12 8 12 -35 15 l-35 2 0 -53z"/>
<path d="M3719 2137 c15 -15 14 -84 -1 -90 -7 -3 -1 -6 15 -6 24 -1 26 1 15
19 -15 24 0 75 22 75 11 0 16 -14 18 -47 3 -42 6 -48 25 -47 12 0 16 3 10 6
-7 2 -13 22 -13 43 0 45 -13 57 -64 57 -28 1 -35 -2 -27 -10z"/>
<path d="M3906 2134 c-32 -32 -10 -94 34 -94 10 0 22 4 25 10 3 6 -1 7 -10 4
-16 -6 -45 11 -45 27 0 5 14 9 30 9 22 0 30 5 30 18 0 38 -37 54 -64 26z m42
-17 c2 -12 -3 -17 -17 -17 -23 0 -24 1 -15 25 8 19 28 15 32 -8z"/>
<path d="M3625 2059 c-10 -15 3 -25 16 -12 7 7 7 13 1 17 -6 3 -14 1 -17 -5z"/>
</g>
</svg>
